<svg width="109" height="109" viewBox="0 0 109 109" fill="none" xmlns="http://www.w3.org/2000/svg">
<mask id="mask0_1_3647" style="mask-type:alpha" maskUnits="userSpaceOnUse" x="0" y="0" width="109" height="109">
<circle cx="54.3213" cy="54.3213" r="54.3213" fill="#D9D9D9"/>
</mask>
<g mask="url(#mask0_1_3647)">
<path d="M84.1011 99.1686C83.8517 99.3467 83.5668 99.5248 83.3174 99.7029C83.0325 99.881 82.7831 100.059 82.4981 100.202C82.2488 100.344 82.0351 100.487 81.7857 100.629C81.7501 100.665 81.7145 100.665 81.6789 100.7C80.8596 101.199 80.0047 101.662 79.1498 102.09C78.9004 102.232 78.6155 102.375 78.3661 102.481C78.3661 102.481 78.3305 102.517 78.2949 102.517C78.0099 102.659 77.7249 102.802 77.44 102.944C76.87 103.229 76.2645 103.479 75.6945 103.728C75.4096 103.871 75.089 103.977 74.804 104.084C74.5191 104.191 74.1985 104.334 73.9135 104.441C73.6285 104.547 73.3079 104.69 73.023 104.797C73.023 104.797 73.023 104.797 72.9874 104.797C72.7024 104.904 72.3818 105.01 72.0968 105.117C71.4557 105.331 70.7789 105.545 70.1377 105.758C69.924 105.83 69.6746 105.901 69.4609 105.972C68.7841 106.186 68.1073 106.364 67.4305 106.507C67.1811 106.578 66.9318 106.613 66.6468 106.685C66.0057 106.827 65.3289 106.97 64.6877 107.112C64.5452 107.148 64.4383 107.148 64.2959 107.183C64.0821 107.219 63.8328 107.255 63.6191 107.29C63.2985 107.326 63.0135 107.397 62.6929 107.433C62.5504 107.468 62.4079 107.468 62.2655 107.504C62.0874 107.54 61.8736 107.575 61.6599 107.575C61.09 107.646 60.4844 107.718 59.9145 107.789C59.7364 107.825 59.5227 107.825 59.3446 107.86H59.3089C59.0596 107.896 58.8102 107.896 58.5609 107.931C58.3115 107.967 58.0622 107.967 57.8129 107.967C57.6704 107.967 57.4923 108.003 57.3498 108.003C57.0648 108.003 56.8155 108.038 56.5661 108.038C56.2099 108.038 55.8893 108.074 55.5331 108.074C55.1769 108.074 54.8563 108.074 54.5001 108.074C54.2508 108.074 54.0014 108.074 53.7521 108.074C38.72 107.86 25.2197 101.484 15.5664 91.3677C15.5664 91.3677 15.5664 91.332 15.5308 91.332C14.4622 90.3703 15.3883 85.2409 19.6985 81.9994C25.1128 77.9029 38.0789 75.3382 38.0789 75.3382C38.0789 75.3382 43.1014 74.519 61.7311 78.4016C72.6311 80.6814 80.9308 83.9941 85.5615 92.9706C86.5233 94.8229 87.4851 97.6726 84.1011 99.1686Z" fill="white"/>
<path d="M61.838 78.0098C68.6772 79.399 75.9795 80.8951 81.6076 85.419C83.4955 86.9507 84.7422 89.1948 85.7753 91.3677C86.2739 92.4363 86.7726 93.5405 87.1645 94.716C87.3782 95.4997 87.6988 96.3902 87.5207 97.3164C87.4851 97.5657 87.2713 97.8863 87.0932 98.0644C86.2739 98.8837 85.3834 99.3824 84.4929 100.024C79.2566 103.657 73.2367 106.222 67.003 107.575C53.1109 110.603 38.0788 108.252 25.8609 100.95C21.8001 98.4918 18.0599 95.4997 14.854 91.9732C14.4978 91.5458 14.4978 90.8334 14.4978 90.3703C14.5334 89.3017 14.8184 88.2686 15.1746 87.3069C16.0295 85.0984 17.1338 82.8899 19.0217 81.3582C20.3753 80.432 21.8357 79.6484 23.3318 79.0072C28.0338 77.0124 32.9851 75.6232 38.0788 75.0533C38.5063 75.0177 38.5775 75.6232 38.1501 75.6945C33.27 76.6918 28.4256 78.1879 23.9017 80.2183C22.2632 81.0376 20.5177 81.75 19.1998 83.0324C17.953 84.386 17.0625 86.0601 16.3501 87.7699C15.887 88.803 15.5664 90.4415 15.7089 91.2608C17.953 93.9324 20.589 96.2834 23.4387 98.3137C39.0406 109.214 62.7285 109.926 79.3279 100.843C80.824 100.024 82.2844 99.0974 83.6736 98.1356C84.3504 97.6726 85.0628 97.2807 85.5972 96.7464C85.6328 96.7108 85.5972 96.7464 85.5972 96.782C85.5972 96.8177 85.5615 96.8533 85.5615 96.8533C85.5972 96.4258 85.4547 95.8559 85.2766 95.286C84.6354 93.22 83.6024 91.0471 82.4981 89.1592C80.7527 86.3451 77.7962 84.5641 74.804 83.1392C72.738 82.1775 70.5651 81.4294 68.3566 80.717C66.1481 80.0046 63.904 79.399 61.6599 78.8647C61.09 78.7222 61.2681 77.903 61.838 78.0098Z" fill="black"/>
<path d="M95.9273 121.254H5.84204C5.84204 121.254 11.1496 110.069 13.5005 97.3164C15.1391 88.4824 16.3502 83.3174 20.9453 80.4677C24.1868 78.473 31.1329 76.4069 34.125 75.3383C36.1554 74.6259 36.5829 75.2315 38.0433 74.8396C38.0433 75.0177 38.079 75.1602 38.079 75.3383C38.079 75.3383 41.926 86.7726 51.9355 90.8334C60.0927 94.1462 64.9371 91.9377 65.6852 88.2687C66.1482 85.9177 64.6878 82.0707 63.9398 80.8239C63.5123 80.4677 63.2273 79.9334 63.0849 79.3991L62.7999 78.2236C63.4767 78.0811 64.1179 77.903 64.759 77.6893C64.9728 77.6181 65.1509 77.5468 65.3646 77.4756C69.461 78.5442 78.2237 81.9994 82.1064 85.5615C83.6381 86.9864 87.2715 94.1105 89.6224 104.441C92.3296 116.16 95.9273 121.254 95.9273 121.254Z" fill="#FEFEFE"/>
<path d="M96.7465 121.681C69.924 121.859 32.2727 122.287 5.87756 122.18C5.23638 122.18 4.77331 121.467 5.05827 120.897C8.22854 113.916 10.722 106.471 12.3249 98.9549C12.503 97.9931 12.8949 96.1052 13.073 95.1435C13.8923 91.2252 14.5334 87.3425 16.6351 83.7448C17.3475 82.5693 18.2736 81.465 19.3779 80.5745C20.4465 79.7196 21.6932 79.0784 22.94 78.5085C26.9295 76.7987 30.9547 75.4451 35.0511 74.1984C36.0129 73.9846 36.9746 74.234 37.9008 74.0203C38.4351 73.8778 39.005 74.2696 39.0406 74.8395L39.0762 75.3382L38.1145 74.4477C38.5063 74.4477 38.8625 74.6971 38.9694 75.0533C39.2544 75.8725 39.6462 76.7275 40.038 77.5467C41.2491 80.0046 42.7452 82.3199 44.5619 84.3503C46.9485 87.0575 49.9406 89.1948 53.3602 90.4059C56.8155 91.6882 62.9779 92.7925 64.6877 88.6605C64.9727 87.9124 64.937 87.1288 64.8302 86.3095C64.5808 84.6353 64.0109 82.8542 63.1916 81.3582L63.3697 81.5719C62.7998 80.8239 62.5861 79.9333 62.6573 79.0784V78.3304V78.2235C62.6573 78.1523 62.7285 78.081 62.7998 78.081C63.2272 77.9386 63.6191 77.7605 64.0465 77.618C64.4383 77.4399 64.8302 77.2618 65.222 77.048C65.3289 76.9768 65.4357 77.0124 65.5426 77.048C67.8936 77.6536 70.1377 78.4729 72.3818 79.399C75.7302 80.7882 79.0429 82.3556 81.9282 84.5997C82.9612 85.3477 83.7093 86.452 84.3148 87.5562C85.5259 89.6935 86.4877 91.902 87.3426 94.1461C88.8387 98.0644 89.9429 102.125 90.9047 106.222C92.1158 110.745 93.5762 115.234 95.8204 119.366C96.0697 119.793 96.3191 120.221 96.5684 120.648L96.6396 120.719V120.755C96.8534 120.933 96.889 121.432 96.7465 121.681ZM95.1079 120.826C94.9298 121.004 94.9655 121.503 95.1079 121.681V121.645L95.0367 121.539C92.5432 117.442 90.9759 112.847 89.6936 108.252C89.0524 106.008 88.5893 103.586 87.9481 101.306C86.7014 96.8176 85.1697 92.2938 82.9256 88.1974C82.5338 87.5206 82.1063 86.7726 81.572 86.2382C80.539 85.2765 79.3279 84.4928 78.1168 83.7448C76.122 82.5693 73.9847 81.5363 71.8119 80.6458C69.639 79.7552 67.4305 78.9359 65.1864 78.3304L65.7207 78.2948C64.7589 78.366 63.8328 78.4016 62.9066 78.366L63.0491 78.1523C63.2629 78.5085 63.5122 79.1141 63.7259 79.4346C63.9753 79.7552 64.2602 80.0046 64.5808 80.1471C64.6521 80.2183 64.7233 80.2895 64.7589 80.3608C66.0413 82.8186 67.3236 86.4876 66.3975 89.2304C64.2602 94.6091 57.1004 93.7542 52.7191 92.0801C49.0501 90.8333 45.7374 88.4467 43.1727 85.5258C40.6079 82.6049 38.5776 79.2565 37.224 75.6232L38.0789 76.2288C37.5802 76.2288 37.1883 75.8726 37.1527 75.3739L37.1171 74.9108L38.257 75.7301C37.9008 75.8369 37.4733 75.8726 37.0815 75.9082C36.0841 75.8726 35.4073 75.8369 34.4812 76.1931C33.27 76.6206 32.0233 77.048 30.7766 77.4399C28.3187 78.2591 25.8965 79.1141 23.5811 80.1471C18.3093 82.2487 16.7776 86.452 15.5664 91.6882C14.9965 94.1105 14.5334 96.8533 14.0347 99.3111C12.3962 107.005 9.90272 114.45 6.66122 121.645L5.84193 120.327C31.6671 120.327 68.9266 120.577 95.1079 120.826Z" fill="#FEFEFE"/>
<path d="M48.872 94.5735C36.5828 89.0523 31.8096 79.1853 32.7357 76.5137C32.7357 76.5137 32.7357 76.4781 32.7713 76.4425C33.4125 75.1245 34.4455 74.0559 35.7279 73.3078C36.4403 72.8804 37.2239 72.4885 37.8651 72.2748C47.5896 69.8526 60.4844 73.949 64.8301 77.6892C66.3975 79.5771 68.0004 81.465 68.606 86.452C69.4609 93.6474 61.5886 100.308 48.872 94.5735Z" fill="black"/>
<path d="M48.6939 94.9654C42.5315 92.1869 36.7609 87.8412 33.4837 81.8212C32.8426 80.5745 32.2726 79.2922 32.0945 77.8317C32.0589 77.333 32.0233 76.7275 32.2726 76.2288C33.0207 74.7327 34.3743 73.5572 35.8703 72.8448C37.0102 72.2392 38.2569 71.8118 39.5037 71.4199C41.2847 71.0994 43.0658 70.9925 44.8824 71.0281C50.8311 71.2062 56.7442 72.7735 62.0161 75.5163C62.4079 75.7301 62.7998 75.9438 63.1916 76.1931C63.3341 76.2644 63.4409 76.3712 63.619 76.3356C63.7971 76.3 63.9396 76.3712 64.0821 76.4425C64.5096 76.6918 64.8658 77.0124 65.2576 77.3686C66.2194 78.5441 67.1811 79.7909 67.8223 81.2157C68.4635 82.6405 68.8197 84.1722 69.0334 85.6683C69.6033 88.7317 68.5703 92.1513 66.1837 94.2529C61.3393 98.5987 54.0726 97.4232 48.6939 94.9654ZM49.0145 94.2173C53.004 95.9627 57.5635 97.067 61.8024 95.7134C65.222 94.6804 68.036 91.5814 68.1429 87.948C68.1785 85.8108 67.6798 83.5667 66.8249 81.6075C66.3618 80.3964 65.0795 78.8647 64.4383 78.081C64.0465 77.7605 63.619 77.5111 63.2628 77.1905C63.2272 77.1193 63.1916 77.048 63.156 76.9768C63.0847 76.7987 62.9422 76.7631 62.8354 76.6562C62.4792 76.4425 62.0873 76.2288 61.6955 76.015C58.5965 74.4121 55.1769 73.4859 51.7573 72.8092C47.7677 72.0611 43.6713 71.8474 39.6462 72.4173C39.0762 72.4886 38.4707 72.4173 37.9007 72.5598C37.4733 72.7379 36.6896 73.0941 36.1909 73.4503C34.9086 74.1984 33.9468 75.3026 33.27 76.6206L33.2344 76.6562C33.2344 76.6918 33.1988 76.7631 33.1988 76.7987C33.0207 78.2948 33.7331 79.8265 34.4099 81.2157C35.0154 82.3556 35.7279 83.4598 36.5471 84.5284C39.8243 88.7673 44.2056 92.0444 49.0145 94.2173Z" fill="#FEFEFE"/>
<path d="M65.1861 87.485C64.438 91.1539 59.5936 93.3624 51.4364 90.0497C42.9586 86.6301 39.2897 78.4729 38.3635 76.0507C43.3861 66.6467 39.8952 60.1281 39.8952 60.1281C51.472 59.1307 61.5884 72.6667 61.5884 72.6667L63.1557 79.3634C63.2982 79.9334 63.5831 80.432 64.0106 80.7883C64.7586 82.1062 65.6491 85.134 65.1861 87.485Z" fill="white"/>
<path d="M38.1856 76.1575C38.8624 75.1245 39.2898 73.9134 39.5748 72.7379C40.1091 70.2801 40.2872 67.7866 40.3228 65.2932V64.367C40.216 63.4409 39.8954 62.4791 39.5392 61.6242C39.0761 60.4843 40.7503 59.7719 41.2846 60.9118C41.3558 61.0543 41.3558 61.3036 41.3558 61.4461C41.4627 66.2905 41.6764 72.5242 38.613 76.5494C38.3993 76.7631 37.9718 76.4425 38.1856 76.1575Z" fill="black"/>
<path d="M61.9802 72.5955C62.5146 72.9161 62.6927 73.3435 62.7639 73.771C62.9776 74.6259 62.9064 75.552 63.1201 76.4425C63.2982 77.2974 63.8325 78.1167 63.975 79.0072C64.1531 79.9334 64.6874 81.8925 64.9012 82.8543C64.9724 83.068 64.8299 83.3174 64.5806 83.353C64.4381 83.3886 64.3312 83.353 64.2244 83.2818C63.7613 82.8899 63.5476 82.4981 63.2626 81.9994C62.7995 81.1445 62.4789 80.3608 62.194 79.3991C61.9446 78.5442 62.0515 77.618 61.8378 76.7275C61.6597 75.8726 61.161 75.0533 60.9829 74.1628C60.876 73.7353 60.8404 73.2723 61.161 72.738C61.3747 72.5242 61.7309 72.453 61.9802 72.5955Z" fill="black"/>
<path d="M64.5451 81.9994C57.7415 81.6431 52.1846 79.5059 46.7703 69.8526C51.3297 73.8778 56.7085 75.4095 62.3722 76.1219L63.1203 79.399C63.2627 79.969 64.1176 81.6431 64.5451 81.9994Z" fill="black"/>
<path d="M64.2602 80.6814C65.4713 82.9611 66.1837 85.8108 65.4357 88.3399C64.8657 90.1209 63.2272 91.4389 61.4461 91.9376C57.3141 93.0419 52.5409 91.2964 48.872 89.3373C44.3481 86.8082 40.9997 82.5693 38.8625 77.9386C38.72 77.5824 39.2187 77.2974 39.4324 77.6536C40.1805 79.1497 41.0354 80.6101 41.9971 81.9281C42.9589 83.2817 44.0631 84.5284 45.3099 85.6327C48.9432 88.9098 53.8589 90.9402 58.7746 90.9402C63.8327 90.7977 65.7563 88.1262 64.5808 83.2105C64.4027 82.4268 64.1177 81.6075 63.7259 80.9307C63.5122 80.6458 64.0465 80.3252 64.2602 80.6814Z" fill="black"/>
<path d="M78.0455 37.9007C78.6866 40.8928 79.0072 43.3151 77.2618 51.2941C75.552 59.2376 78.8647 67.2523 70.4582 74.5546C64.7945 79.4703 54.8919 80.3964 46.984 75.0177C44.3125 73.201 43.6 64.7232 41.4984 61.4817C40.6079 60.1281 40.0736 62.301 38.0432 60.0569C35.2291 56.9935 31.8451 50.8311 33.5193 39.9311C36.2265 22.2631 50.2255 20.1971 60.5912 22.1562C70.9925 24.1154 76.3357 30.0285 78.0455 37.9007Z" fill="white"/>
<path d="M39.7885 63.1915C38.9692 61.8379 37.9362 60.6624 36.9744 59.4157C35.5496 57.4922 34.481 55.2837 33.7686 53.0039C30.7052 43.2438 32.3437 30.5271 41.3914 24.436C49.7624 18.7722 65.7561 20.482 73.0941 27.3213C76.763 30.634 78.7934 35.4428 79.2208 40.2873C79.4346 43.5288 78.6509 46.6634 77.9741 49.7981C77.1905 52.8615 77.0124 55.9249 77.0124 59.0951C76.9767 62.2654 76.8342 65.5781 75.6231 68.5703C73.7709 73.1298 69.8882 76.8343 65.2218 78.4017C59.095 80.5389 51.864 79.3278 46.8414 75.2314C46.6277 75.0533 46.8414 74.7683 47.0908 74.8752C53.6807 78.6154 62.3365 79.2566 68.7483 74.9464C72.5597 72.3817 75.1957 68.3209 75.8012 63.7615C76.2999 60.6624 76.1575 57.5278 76.4424 54.3932C76.5493 53.0039 76.9411 51.0804 77.2261 49.6912C77.6535 47.3758 77.9385 45.0605 77.9029 42.7451C77.8673 40.4654 77.3686 38.2213 76.6918 36.0484C74.3408 28.3186 67.6084 23.7592 59.8431 22.5124C48.2307 20.482 38.0787 24.7922 35.0509 36.8677C33.7329 42.7807 32.6999 49.2994 35.1934 55.0343C36.0839 57.2072 37.5444 59.0595 39.2186 60.6624L40.8571 62.4079C41.5695 63.1203 40.3584 64.0464 39.7885 63.1915Z" fill="black"/>
<path d="M43.9916 51.864C43.9916 51.864 42.8874 46.5209 37.6867 47.1621C33.1985 47.732 31.6312 58.4895 41.8188 61.4817" fill="white"/>
<path d="M41.3557 56.8153C40.5364 56.3523 39.9664 55.5686 39.9308 54.6068C39.9664 53.8944 40.0733 53.0751 39.8952 52.3627C39.7883 51.6859 39.0759 51.5078 38.5416 51.5434C37.9717 51.6503 37.6155 52.3627 37.5086 52.9327C37.5086 52.9683 37.473 53.0751 37.473 53.1108C37.4374 53.2889 37.1524 53.2889 37.0812 53.1108C36.6181 51.7215 37.6511 50.1898 39.1472 50.3679C41.2488 50.5104 41.5338 52.7189 41.1419 54.3931C40.9282 55.1055 41.2132 55.7467 41.605 56.3523L41.6763 56.4591C41.8544 56.6729 41.5694 56.9578 41.3557 56.8153Z" fill="black"/>
<path d="M69.8525 48.0882C70.3868 50.6173 71.3842 52.9683 72.6309 55.1768C73.7351 57.884 70.8855 60.4487 68.3564 60.3418C68.0714 60.3418 68.0358 59.95 68.2852 59.8788C69.8881 59.3801 71.3486 58.3114 71.5979 56.6729C71.7048 56.1742 71.5623 55.7467 71.3129 55.3193C70.1374 53.1108 69.425 50.5817 69.6031 48.0882C69.6031 47.9101 69.8525 47.9101 69.8525 48.0882Z" fill="black"/>
<path d="M43.8137 51.8997C42.9944 49.7981 41.2134 47.8033 38.8268 47.8389C38.613 47.8033 38.2568 47.8745 38.0431 47.8745C37.4376 47.9102 36.9389 48.1239 36.4758 48.5513C34.1961 50.8311 34.5879 54.8562 36.4402 57.3853C37.0813 58.2758 37.9006 59.0595 38.8268 59.7007C39.7529 60.3419 40.7859 60.8405 41.8902 61.268C42.1395 61.3392 42.0327 61.7311 41.7833 61.6954C39.3967 61.1968 37.117 60.0213 35.5496 58.0621C33.1274 55.1412 32.6287 50.2611 35.514 47.4115C36.1552 46.8415 37.0457 46.4141 37.9363 46.4141C38.2212 46.4141 38.6487 46.3428 38.9336 46.4141C40.4297 46.4853 41.8546 47.2334 42.7807 48.4088C43.6 49.4062 44.063 50.6173 44.2055 51.8285C44.2055 52.0422 43.8849 52.1134 43.8137 51.8997Z" fill="black"/>
<path d="M67.1455 63.9039C64.8657 66.0768 60.5556 64.3314 59.4157 61.6954C59.2733 61.3748 59.6295 61.0899 59.9144 61.2324C60.52 61.5529 61.0543 61.8735 61.6242 62.1229C63.2628 62.8709 64.9726 63.4765 66.7893 63.2984C67.1455 63.2271 67.3948 63.6546 67.1455 63.9039Z" fill="black"/>
<path d="M56.5661 51.7216C55.7112 51.686 55.07 50.9735 55.1413 50.1186L55.1769 49.1213C55.2125 48.2664 55.9249 47.6252 56.7798 47.6964C57.6347 47.732 58.2759 48.4445 58.2047 49.2994L58.1691 50.2967C58.1334 51.116 57.421 51.7572 56.5661 51.7216Z" fill="black"/>
<path d="M71.5624 52.2559C70.7787 52.2203 70.1731 51.5435 70.2088 50.7599L70.2444 49.8337C70.28 49.05 70.9568 48.4445 71.7405 48.4801C72.5241 48.5157 73.1297 49.1925 73.0941 49.9762L73.0584 50.9023C73.0228 51.686 72.346 52.2916 71.5624 52.2559Z" fill="black"/>
<path d="M59.7719 49.798C58.5964 49.0144 57.3141 48.4801 55.8892 48.765C55.4261 48.8363 54.9631 48.9788 54.6781 49.2993C54.5712 49.4418 54.3219 49.4062 54.3219 49.1925C54.3575 48.4801 54.9631 48.017 55.533 47.732C56.6373 47.1621 58.169 47.269 59.1663 48.017C59.5226 48.2307 60.7337 49.5487 60.0925 49.8337C59.95 49.9049 59.8788 49.8693 59.7719 49.798Z" fill="black"/>
<path d="M69.9595 49.9762C69.9595 48.4801 71.8118 47.9458 72.9516 48.4801C73.5928 48.7651 74.0559 49.335 74.234 50.0118C74.3052 50.2255 73.9846 50.4036 73.8422 50.2255C73.2366 49.5131 72.2036 49.1569 71.3843 49.5843C71.135 49.7268 71.0993 49.8337 71.0281 49.9762C71.0281 50.6886 69.9951 50.653 69.9595 49.9762Z" fill="black"/>
<path d="M61.4817 43.9206C62.2298 44.1699 62.9778 43.4931 62.8353 42.6739C62.7641 42.2464 62.586 41.819 62.2298 41.4984C61.1612 40.5366 56.7442 39.6817 54.0726 40.9284C51.7216 42.0683 58.0621 42.7807 61.4817 43.9206Z" fill="black"/>
<path d="M72.1326 44.4905C71.527 44.7043 70.8858 44.0631 70.9927 43.315C71.0283 42.9232 71.1708 42.5314 71.4558 42.2464C72.3107 41.3915 75.2316 40.7147 77.0839 42.0327C78.6868 43.1369 74.911 43.4575 72.1326 44.4905Z" fill="black"/>
<path d="M80.7527 29.4229C83.2817 20.2683 73.0229 14.5334 70.2801 18.6654C68.2853 21.6576 60.5912 19.3422 48.9076 19.1285C37.2239 18.8791 34.0893 25.0772 33.9468 31.7383C33.9468 31.7383 28.8174 34.4455 29.138 43.9919C29.4585 53.8945 39.6461 61.8736 40.8929 66.8961C40.8929 66.8961 41.0353 67.5373 39.6817 60.6625C31.9164 56.9223 33.555 47.6964 37.7226 47.1621C40.8929 46.7703 42.567 48.6226 43.3507 50.1187C43.6713 50.5461 46.6991 54.2507 46.7703 42.1396C46.8059 33.8755 54.8563 31.1683 64.0108 34.5167C68.784 36.2621 73.8066 37.5445 77.2618 35.051C77.8317 36.6896 78.4373 38.5062 77.9742 40.7147C79.3634 39.4324 80.5389 37.5445 80.8595 35.2291C81.0732 33.8399 80.717 32.6288 79.9334 31.5602C80.254 30.9546 80.5389 30.2066 80.7527 29.4229Z" fill="#FEFEFE"/>
<path d="M62.2297 56.1029C62.2297 56.1029 58.8814 58.2045 55.1056 58.1689C51.3297 58.1333 50.8667 55.1768 50.8311 53.5738C50.8311 53.5738 51.3297 55.8892 53.6095 56.7441C55.8536 57.599 62.2297 56.1029 62.2297 56.1029Z" fill="black"/>
<path d="M72.9871 55.7111C72.9871 55.7111 73.8063 56.7085 74.9106 57.4209C75.6586 57.9196 76.656 57.3853 76.656 56.4947C76.656 56.4947 74.59 56.6016 72.9871 55.7111Z" fill="black"/>
<path d="M63.4763 46.5922C61.5528 46.4141 56.7083 46.0222 54.856 45.8441L53.4312 45.7373C52.2557 45.666 51.3296 46.6634 51.1158 47.8033C51.0446 48.1595 51.0446 48.765 51.0446 49.1212V50.5817C51.0446 51.4722 51.009 52.3984 51.3296 53.2533C51.8995 55.248 53.7162 56.851 55.8534 56.6016C56.0671 56.566 57.3851 56.4235 57.6345 56.3879L60.5198 56.0673C61.4459 55.9961 62.3008 55.7467 63.1201 55.248C64.2599 54.5712 65.3642 53.5382 65.293 52.0778L65.3642 50.6529C65.4354 48.8719 65.9341 46.7703 63.4763 46.5922ZM63.5832 45.4167C65.2573 45.5592 66.3972 47.3046 66.2903 48.9075C66.2903 49.1212 66.2191 50.4748 66.1835 50.7242C66.1835 51.0091 66.1122 52.2915 66.0766 52.5409C65.8985 54.9631 63.1913 56.6729 60.9828 56.9935C59.843 57.1359 57.4564 57.4565 56.3165 57.599C56.0315 57.6346 55.6397 57.6703 55.3547 57.7059C55.2122 57.7059 54.8916 57.6703 54.7492 57.6703C51.7214 57.2784 49.7979 54.1794 49.8691 51.2941C49.8691 50.831 49.8691 49.6199 49.8691 49.1212C49.8691 48.8719 49.8691 48.2307 49.9047 47.9814C50.0116 46.7346 50.6884 45.5235 51.8283 44.8467C52.3269 44.5618 52.9325 44.4193 53.5381 44.4549L54.9985 44.5974C56.7796 44.8111 61.6952 45.2742 63.5832 45.4167Z" fill="black"/>
<path d="M71.8473 45.9866C72.631 45.8797 76.4781 45.4523 77.1905 45.381C77.3686 45.381 77.8317 45.3098 77.9741 45.3098C79.5058 45.0961 80.2183 46.7703 80.3607 48.017C80.432 49.1212 80.3607 50.1899 80.3964 51.2585C80.3964 52.0065 80.3251 52.7546 80.147 53.467C79.6839 55.3905 78.3304 57.4209 76.0862 56.7797C75.5519 56.6729 74.4833 56.5304 73.9846 56.4235L73.4503 56.3167C72.4173 56.1386 71.5624 55.4261 70.9924 54.6425C69.9238 53.3957 70.1375 51.7216 70.0307 50.2255C69.8882 48.7294 69.9238 46.4141 71.8473 45.9866ZM71.9898 47.0196C70.8856 47.5183 71.1705 49.1925 71.1705 50.1899L71.2418 52.3271C71.2774 53.6807 72.346 55.0343 73.6284 55.3905C73.949 55.4618 74.8395 55.6399 75.1957 55.7111L76.2287 55.9248C78.7934 56.7441 79.7908 53.182 79.7552 51.2229C79.6483 49.5843 80.147 47.6252 78.9715 46.3072C78.6866 46.0222 78.4016 45.951 78.081 46.0222C77.9029 46.0578 77.4398 46.1291 77.2973 46.1647C76.5849 46.3072 72.7379 46.9127 71.9898 47.0196Z" fill="black"/>
<path d="M50.4391 49.2993C50.1542 49.9405 49.9048 49.8693 49.4061 49.8693L48.3731 49.8336C47.0551 49.7624 45.5947 49.6555 44.2767 49.4774C43.5643 49.3706 42.8162 49.2637 42.1038 49.0856C41.8189 49.0144 41.6408 48.7294 41.712 48.4444C41.7832 48.1951 41.997 48.017 42.2463 48.0526L44.3123 48.1595L46.3783 48.2307C47.0551 48.2663 48.8006 48.302 49.4774 48.3376C49.8336 48.3376 50.1542 48.3732 50.5104 48.2663C50.6528 48.2307 50.7953 48.302 50.831 48.4444C50.8666 48.5157 50.831 48.5513 50.831 48.6225L50.4391 49.2993Z" fill="black"/>
<path d="M65.6137 48.5513C66.896 47.8389 70.28 46.8415 70.9212 48.765C71.2062 49.2637 70.4581 49.7268 70.1375 49.2281C70.1375 49.2994 69.9594 49.2281 69.8882 49.2281C68.5346 49.1212 67.1454 49.335 65.7918 49.4418C65.2219 49.5131 65.115 48.765 65.6137 48.5513Z" fill="black"/>
<path d="M102.66 30.0284C124.281 71.6693 86.2739 118.653 40.9641 107.183C20.6246 102.125 4.27457 84.4928 0.89058 63.7971C-2.95648 43.2082 6.34058 21.0876 23.7236 9.43954C47.554 -6.94608 80.5746 -1.49608 97.637 21.9425C97.7439 22.0493 97.7082 22.2274 97.5657 22.3343C97.4589 22.4412 97.2808 22.4056 97.1739 22.2631C94.8229 19.2353 92.1514 16.4925 89.2304 14.0346C84.4216 9.93823 78.7935 6.73235 72.8448 4.55948C42.567 -6.41177 9.33274 11.8261 2.70725 43.4931C-4.77315 78.9716 25.3978 111.636 61.3749 106.756C89.1236 103.265 109.748 77.6536 107.468 49.798C106.97 43.0657 105.189 36.4046 102.232 30.2778C102.161 30.1709 102.232 30.0284 102.339 29.9572C102.446 29.8859 102.588 29.9216 102.66 30.0284Z" fill="#FEFEFE"/>
</g>
</svg>
