<svg width="109" height="109" viewBox="0 0 109 109" fill="none" xmlns="http://www.w3.org/2000/svg">
<mask id="mask0_1_3717" style="mask-type:alpha" maskUnits="userSpaceOnUse" x="0" y="0" width="109" height="109">
<circle cx="54.3213" cy="54.3213" r="54.3213" transform="matrix(-1 0 0 1 109 0)" fill="#D9D9D9"/>
</mask>
<g mask="url(#mask0_1_3717)">
<path d="M24.8989 99.1686C25.1483 99.3467 25.4332 99.5248 25.6826 99.7029C25.9675 99.881 26.2169 100.059 26.5019 100.202C26.7512 100.344 26.9649 100.487 27.2143 100.629C27.2499 100.665 27.2855 100.665 27.3211 100.7C28.1404 101.199 28.9953 101.662 29.8502 102.09C30.0996 102.232 30.3845 102.375 30.6339 102.481C30.6339 102.481 30.6695 102.517 30.7051 102.517C30.9901 102.659 31.2751 102.802 31.56 102.944C32.13 103.229 32.7355 103.479 33.3055 103.728C33.5904 103.871 33.911 103.977 34.196 104.084C34.4809 104.191 34.8015 104.334 35.0865 104.441C35.3715 104.547 35.6921 104.69 35.977 104.797C35.977 104.797 35.977 104.797 36.0126 104.797C36.2976 104.904 36.6182 105.01 36.9032 105.117C37.5443 105.331 38.2211 105.545 38.8623 105.758C39.076 105.83 39.3254 105.901 39.5391 105.972C40.2159 106.186 40.8927 106.364 41.5695 106.507C41.8189 106.578 42.0682 106.613 42.3532 106.685C42.9943 106.827 43.6711 106.97 44.3123 107.112C44.4548 107.148 44.5617 107.148 44.7041 107.183C44.9179 107.219 45.1672 107.255 45.3809 107.29C45.7015 107.326 45.9865 107.397 46.3071 107.433C46.4496 107.468 46.5921 107.468 46.7345 107.504C46.9126 107.54 47.1264 107.575 47.3401 107.575C47.91 107.646 48.5156 107.718 49.0855 107.789C49.2636 107.825 49.4773 107.825 49.6554 107.86H49.6911C49.9404 107.896 50.1898 107.896 50.4391 107.931C50.6885 107.967 50.9378 107.967 51.1871 107.967C51.3296 107.967 51.5077 108.003 51.6502 108.003C51.9352 108.003 52.1845 108.038 52.4339 108.038C52.7901 108.038 53.1107 108.074 53.4669 108.074C53.8231 108.074 54.1437 108.074 54.4999 108.074C54.7492 108.074 54.9986 108.074 55.2479 108.074C70.28 107.86 83.7803 101.484 93.4336 91.3677C93.4336 91.3677 93.4336 91.332 93.4692 91.332C94.5378 90.3703 93.6117 85.2409 89.3015 81.9994C83.8872 77.9029 70.9211 75.3382 70.9211 75.3382C70.9211 75.3382 65.8986 74.519 47.2689 78.4016C36.3689 80.6814 28.0692 83.9941 23.4385 92.9706C22.4767 94.8229 21.5149 97.6726 24.8989 99.1686Z" fill="white"/>
<path d="M47.162 78.0098C40.3228 79.399 33.0205 80.8951 27.3924 85.419C25.5045 86.9507 24.2578 89.1948 23.2247 91.3677C22.7261 92.4363 22.2274 93.5405 21.8355 94.716C21.6218 95.4997 21.3012 96.3902 21.4793 97.3164C21.5149 97.5657 21.7287 97.8863 21.9068 98.0644C22.7261 98.8837 23.6166 99.3824 24.5071 100.024C29.7434 103.657 35.7633 106.222 41.997 107.575C55.8891 110.603 70.9212 108.252 83.1391 100.95C87.1999 98.4918 90.9401 95.4997 94.146 91.9732C94.5022 91.5458 94.5022 90.8334 94.5022 90.3703C94.4666 89.3017 94.1816 88.2686 93.8254 87.3069C92.9705 85.0984 91.8662 82.8899 89.9783 81.3582C88.6247 80.432 87.1643 79.6484 85.6682 79.0072C80.9662 77.0124 76.0149 75.6232 70.9212 75.0533C70.4937 75.0177 70.4225 75.6232 70.8499 75.6945C75.73 76.6918 80.5744 78.1879 85.0983 80.2183C86.7368 81.0376 88.4823 81.75 89.8002 83.0324C91.047 84.386 91.9375 86.0601 92.6499 87.7699C93.113 88.803 93.4336 90.4415 93.2911 91.2608C91.047 93.9324 88.411 96.2834 85.5613 98.3137C69.9594 109.214 46.2715 109.926 29.6721 100.843C28.176 100.024 26.7156 99.0974 25.3264 98.1356C24.6496 97.6726 23.9372 97.2807 23.4028 96.7464C23.3672 96.7108 23.4028 96.7464 23.4028 96.782C23.4028 96.8177 23.4385 96.8533 23.4385 96.8533C23.4028 96.4258 23.5453 95.8559 23.7234 95.286C24.3646 93.22 25.3976 91.0471 26.5019 89.1592C28.2473 86.3451 31.2038 84.5641 34.196 83.1392C36.262 82.1775 38.4349 81.4294 40.6434 80.717C42.8519 80.0046 45.096 79.399 47.3401 78.8647C47.91 78.7222 47.7319 77.903 47.162 78.0098Z" fill="black"/>
<path d="M24.8989 99.1687C25.1482 99.3468 25.4332 99.5249 25.6825 99.703C25.9675 99.8811 26.2168 100.059 26.5018 100.202C26.7511 100.344 26.9649 100.487 27.2142 100.629C27.2498 100.665 27.2855 100.665 27.3211 100.7C28.1404 101.199 28.9953 101.662 29.8502 102.09C30.0995 102.232 30.3845 102.375 30.6338 102.481C30.6338 102.481 30.6694 102.517 30.7051 102.517C30.99 102.66 31.275 102.802 31.56 102.944C32.1299 103.229 32.7355 103.479 33.3054 103.728C33.5904 103.871 33.9109 103.977 34.1959 104.084C34.4809 104.191 34.8015 104.334 35.0864 104.441C35.3714 104.547 35.692 104.69 35.977 104.797C35.977 104.797 35.977 104.797 36.0126 104.797C36.2976 104.904 36.6181 105.01 36.9031 105.117C37.5443 105.331 38.2211 105.545 38.8623 105.759C39.076 105.83 39.3253 105.901 39.5391 105.972C40.2159 106.186 40.8926 106.364 41.5694 106.507C41.8188 106.578 42.0681 106.613 42.3531 106.685C42.9943 106.827 43.6711 106.97 44.3123 107.112C44.4547 107.148 44.5616 107.148 44.7041 107.183C44.9178 107.219 45.1672 107.255 45.3809 107.29C45.7015 107.326 45.9864 107.397 46.307 107.433C46.4495 107.468 46.592 107.468 46.7345 107.504C46.9126 107.54 47.1263 107.575 47.34 107.575C47.91 107.646 48.5155 107.718 49.0855 107.789C49.2636 107.825 49.4773 107.825 49.6554 107.86H49.691C49.9404 107.896 50.1897 107.896 50.4391 107.931C50.6884 107.967 50.9377 107.967 51.1871 107.967C51.3296 107.967 51.5077 108.003 51.6502 108.003C51.9351 108.003 52.1845 108.038 52.4338 108.038C52.79 108.038 53.1106 108.074 53.4668 108.074C53.823 108.074 54.1436 108.074 54.4998 108.074C54.7492 108.074 54.9985 108.074 55.2479 108.074C70.2799 107.86 83.7802 101.484 93.4335 91.3677C93.4335 91.3677 93.4335 91.3321 93.4691 91.3321C94.5377 90.7977 93.7897 84.7066 89.4796 81.4651C84.0652 77.3687 70.9211 75.3383 70.9211 75.3383C70.9211 75.3383 65.8985 74.519 47.2688 78.4017C37.2949 80.4677 28.0335 83.7448 24.6495 89.4442C23.7234 91.0115 21.4792 94.0749 21.8711 96.3902C22.0848 97.637 23.8302 98.2069 24.8989 99.1687Z" fill="white"/>
<path d="M47.1619 78.0098C40.5364 79.4347 32.771 80.6814 27.3211 84.9915C23.8302 87.77 22.6903 92.187 21.0162 96.1765C20.8737 96.4258 21.0162 96.6752 21.123 96.8889C22.0848 98.385 23.6521 99.3824 25.0769 100.38C29.2446 103.194 33.9109 105.331 38.7197 106.72C54.8204 111.387 73.0227 108.466 86.6655 98.67C89.4083 96.7108 91.9374 94.4667 94.1815 91.9732L94.0034 92.1157C94.5733 91.7239 94.7158 91.0115 94.7158 90.4059C94.5377 87.9125 93.4335 85.6327 92.3292 83.4242C91.973 82.783 91.5812 82.0706 91.0112 81.5719C85.775 76.7631 77.1547 74.9108 70.2799 74.2696C69.8524 74.234 69.8168 74.8396 70.2086 74.9108C76.5848 76.0863 83.2103 77.5824 88.6246 81.287C89.3371 81.8569 90.192 82.4268 90.6907 83.2105C91.5099 84.4928 94.3952 90.0497 93.3266 91.1896C85.8818 100.059 74.6969 105.153 63.3338 106.507C52.1488 108.003 40.3583 106.471 30.3488 101.163C28.924 100.415 27.5348 99.5961 26.2168 98.67C25.0057 97.8507 23.7946 97.067 22.8684 95.9628L22.9041 96.034L22.9397 96.6752C23.0465 95.3572 23.7233 94.0749 24.1508 92.8281C24.6495 91.5814 25.1838 90.2634 25.825 89.1236C27.1073 86.8082 29.3158 85.1696 31.6312 83.9229C34.0178 82.6406 36.6181 81.7144 39.2897 80.9307C41.9612 80.1471 44.6328 79.4703 47.3756 78.8647C47.9099 78.7223 47.7318 77.903 47.1619 78.0098Z" fill="black"/>
<path d="M88.7314 80.6814C88.7314 80.6814 86.9504 80.8951 84.4926 82.3912C79.8975 85.2053 72.702 102.695 85.2406 113.168C85.2406 113.168 87.4847 126.276 85.2406 128.77C85.2406 128.77 44.2053 130.836 26.5017 128.77C26.5017 128.77 24.1507 121.076 25.2906 112.847C26.7154 102.41 26.288 91.4389 33.1628 82.0706C36.2975 77.7961 52.0063 74.0915 61.0896 74.1628C70.2798 74.2696 74.0913 75.2314 76.5135 75.837C78.9713 76.4781 88.5533 78.7935 88.7314 80.6814Z" fill="black" stroke="black" stroke-width="5.1257" stroke-miterlimit="10" stroke-linecap="round" stroke-linejoin="round"/>
<path d="M87.6628 82.1062C83.3527 78.1523 83.8514 81.5007 75.7655 80.1827C72.6664 79.684 68.9975 77.1193 64.2599 77.2262C60.8403 77.2974 57.1357 79.8621 52.7543 80.4321C49.2279 80.8951 45.0246 79.2922 40.8213 80.1471C37.2949 80.8951 34.0177 83.9941 29.957 85.0984" stroke="white" stroke-width="4" stroke-miterlimit="10" stroke-linecap="round" stroke-linejoin="round"/>
<path d="M87.342 86.8438C82.2839 83.816 83.2456 86.9863 75.2309 85.882C72.0607 85.4546 68.2849 82.8186 63.5829 82.8543C60.092 82.8899 56.3162 85.419 51.8992 85.8464C48.3015 86.2026 44.0982 84.4572 39.8594 85.1696C36.226 85.8108 32.842 88.8742 28.7456 89.836" stroke="white" stroke-width="4" stroke-miterlimit="10" stroke-linecap="round" stroke-linejoin="round"/>
<path d="M87.0217 91.617C81.4649 89.4085 82.676 92.4007 74.7325 91.5458C71.4554 91.1896 67.6083 88.5536 62.9064 88.5536C59.3443 88.5536 55.4616 91.0471 51.0446 91.4033C47.3757 91.6883 43.1368 89.7647 38.8979 90.3703C35.1933 90.9046 31.6668 93.8968 27.4992 94.716" stroke="white" stroke-width="4" stroke-miterlimit="10" stroke-linecap="round" stroke-linejoin="round"/>
<path d="M86.7012 96.4615C80.8237 95.001 82.1773 97.8151 74.3051 97.1739C70.9567 96.8889 67.0028 94.2886 62.3008 94.253C58.6319 94.2174 54.6423 96.7108 50.2254 96.9602C46.4495 97.1739 42.2463 95.0723 37.9361 95.5353C34.1247 95.9272 30.4201 98.8481 26.2169 99.5249" stroke="white" stroke-width="4" stroke-miterlimit="10" stroke-linecap="round" stroke-linejoin="round"/>
<path d="M86.4517 101.306C80.3605 100.451 81.8209 103.123 73.9487 102.731C70.4935 102.553 66.4327 99.9523 61.6951 99.9167C57.9549 99.8811 53.8585 102.41 49.4059 102.553C45.5588 102.695 41.32 100.451 36.9742 100.736C33.0559 101.021 29.1732 103.835 24.9343 104.298" stroke="white" stroke-width="4" stroke-miterlimit="10" stroke-linecap="round" stroke-linejoin="round"/>
<path d="M86.2026 106.15C79.969 105.794 81.4651 108.395 73.5928 108.216C70.0307 108.145 65.8631 105.581 61.1255 105.581C57.2785 105.581 53.1108 108.11 48.6226 108.181C44.6686 108.252 40.3941 105.865 36.0484 106.008C32.0232 106.15 27.9624 108.858 23.6523 109.107" stroke="white" stroke-width="4" stroke-miterlimit="10" stroke-linecap="round" stroke-linejoin="round"/>
<path d="M43.8139 87.485C44.562 91.1539 49.4064 93.3624 57.5636 90.0497C66.0414 86.6301 69.7103 78.4729 70.6365 76.0507C65.6139 66.6468 69.1048 60.1281 69.1048 60.1281C57.528 59.1307 47.4116 72.6667 47.4116 72.6667L45.8443 79.3634C45.7018 79.9334 45.4169 80.432 44.9894 80.7883C44.2414 82.1062 43.3509 85.134 43.8139 87.485Z" fill="white"/>
<path d="M70.8143 76.1575C70.1375 75.1245 69.7101 73.9134 69.4251 72.7379C68.8908 70.2801 68.7127 67.7866 68.6771 65.2932V64.367C68.7839 63.4409 69.1045 62.4791 69.4607 61.6242C69.9238 60.4843 68.2496 59.7719 67.7153 60.9118C67.644 61.0543 67.644 61.3036 67.644 61.4461C67.5372 66.2905 67.3235 72.5242 70.3869 76.5494C70.6006 76.7631 71.028 76.4425 70.8143 76.1575Z" fill="black"/>
<path d="M47.0198 72.5955C46.4854 72.9161 46.3073 73.3435 46.2361 73.771C46.0224 74.6259 46.0936 75.552 45.8799 76.4425C45.7018 77.2974 45.1675 78.1167 45.025 79.0072C44.8469 79.9334 44.3126 81.8925 44.0988 82.8543C44.0276 83.068 44.1701 83.3174 44.4194 83.353C44.5619 83.3886 44.6688 83.353 44.7756 83.2818C45.2387 82.8899 45.4524 82.4981 45.7374 81.9994C46.2005 81.1445 46.5211 80.3608 46.806 79.3991C47.0554 78.5442 46.9485 77.618 47.1622 76.7275C47.3403 75.8726 47.839 75.0533 48.0171 74.1628C48.124 73.7353 48.1596 73.2723 47.839 72.738C47.6253 72.5242 47.2691 72.453 47.0198 72.5955Z" fill="black"/>
<path d="M44.4549 81.9994C51.2585 81.6431 56.8154 79.5059 62.2297 69.8526C57.6703 73.8778 52.2915 75.4095 46.6278 76.1219L45.8797 79.399C45.7373 79.969 44.8823 81.6431 44.4549 81.9994Z" fill="black"/>
<path d="M44.7397 80.6814C43.5286 82.9611 42.8162 85.8108 43.5642 88.3399C44.1341 90.1209 45.7727 91.4389 47.5537 91.9376C51.6858 93.0419 56.459 91.2964 60.1279 89.3373C64.6518 86.8082 68.0001 82.5693 70.1374 77.9386C70.2799 77.5824 69.7812 77.2974 69.5675 77.6536C68.8194 79.1497 67.9645 80.6102 67.0028 81.9281C66.041 83.2817 64.9367 84.5285 63.69 85.6327C60.0567 88.9098 55.141 90.9402 50.2253 90.9402C45.1671 90.7977 43.2436 88.1262 44.4191 83.2105C44.5972 82.4268 44.8822 81.6075 45.274 80.9307C45.4877 80.6458 44.9534 80.3252 44.7397 80.6814Z" fill="black"/>
<path d="M30.9547 37.9007C30.3135 40.8928 29.9929 43.3151 31.7383 51.2941C33.4482 59.2376 29.2805 60.8762 39.1475 73.5928C43.1727 78.7935 52.9328 77.333 60.8406 71.9543C63.5122 70.1376 64.6521 65.4713 66.6468 62.1585C68.2142 59.5582 68.9266 62.2654 70.9926 60.0213C73.8066 56.9579 77.1906 50.7954 75.5165 39.8954C72.8093 22.2275 58.8102 20.1615 48.4446 22.1206C38.0076 24.1154 32.6645 30.0284 30.9547 37.9007Z" fill="white"/>
<path d="M69.2115 63.1915C70.0308 61.8023 71.0994 60.5912 72.0968 59.3088C73.0585 57.9909 73.8422 56.5304 74.4834 55.0343C78.7223 44.633 77.0837 29.9928 66.6824 23.866C62.3723 21.3726 57.1716 20.767 52.3272 21.1588C41.9615 21.9069 32.4507 26.6801 30.2066 37.6513C28.9955 42.4958 30.634 47.4827 31.5602 52.2203C31.9876 54.5713 31.6314 56.9935 31.667 59.4157C31.7027 61.8736 32.3795 64.3314 33.3056 66.6111C33.8755 68.1785 34.8729 69.5677 35.9059 70.85C37.6157 72.916 39.3255 75.0177 41.4984 76.6206C41.9971 76.9768 42.8876 77.1549 43.4932 77.2262C45.1674 77.4755 46.8059 77.5468 48.4801 77.4399C55.0344 77.1549 62.0517 73.9847 64.6876 67.6441C64.7945 67.3948 64.4383 67.2167 64.2958 67.4304C60.8762 72.8448 54.6069 75.5164 48.3732 75.8726C46.4497 75.9794 44.4906 75.9438 42.6027 75.552C41.6765 75.0889 40.8572 74.2696 40.0736 73.5216C38.15 71.5981 36.1909 69.5321 34.8017 67.1811C33.1275 64.0108 32.2013 60.5556 32.4863 56.9579C32.5576 55.3549 32.5932 53.6807 32.2726 52.0778C31.9876 50.4749 31.6314 48.9432 31.4177 47.3046C31.204 45.7373 31.0971 44.1343 31.0971 42.567C31.2752 37.9719 32.7713 33.2343 35.6922 29.6722C42.1396 21.6575 57.3853 19.5559 65.97 25.0415C71.3844 28.3899 73.9134 34.6592 74.7327 40.7503C75.9795 48.0526 75.6232 55.2481 69.817 60.5556L68.1072 62.3366C67.4304 63.1203 68.6415 64.0464 69.2115 63.1915Z" fill="black"/>
<path d="M65.0084 51.864C65.0084 51.864 66.1126 46.5209 71.3133 47.1621C75.8015 47.732 77.3688 58.4895 67.1812 61.4817" fill="white"/>
<path d="M67.6441 56.8154C68.4634 56.3523 69.0333 55.5686 69.0689 54.6069C69.0333 53.8945 68.9264 53.0752 69.1045 52.3628C69.2114 51.686 69.9238 51.5079 70.4581 51.5435C71.0281 51.6503 71.3843 52.3628 71.4911 52.9327C71.4911 52.9683 71.5268 53.0752 71.5268 53.1108C71.5624 53.2889 71.8474 53.2889 71.9186 53.1108C72.3817 51.7216 71.3487 50.1899 69.8526 50.368C67.751 50.5105 67.466 52.719 67.8578 54.3932C68.0715 55.1056 67.7866 55.7468 67.3947 56.3523L67.3235 56.4592C67.1454 56.6729 67.4304 56.9579 67.6441 56.8154Z" fill="black"/>
<path d="M39.1475 48.0882C38.6132 50.6173 37.6158 52.9683 36.3691 55.1768C35.2649 57.884 38.1145 60.4487 40.6436 60.3418C40.9286 60.3418 40.9642 59.95 40.7148 59.8788C39.1119 59.3801 37.6514 58.3114 37.4021 56.6729C37.2952 56.1742 37.4377 55.7467 37.6871 55.3193C38.8626 53.1108 39.575 50.5817 39.3969 48.0882C39.3969 47.9101 39.1475 47.9101 39.1475 48.0882Z" fill="black"/>
<path d="M65.1864 51.8997C66.0057 49.7981 67.7867 47.8033 70.1734 47.8389C70.3871 47.8033 70.7433 47.8745 70.957 47.8745C71.5626 47.9102 72.0613 48.1239 72.5243 48.5513C74.8041 50.8311 74.4122 54.8562 72.56 57.3853C71.9188 58.2758 71.0995 59.0595 70.1734 59.7007C69.2472 60.3419 68.2142 60.8405 67.11 61.268C66.8606 61.3392 66.9675 61.7311 67.2168 61.6954C69.6034 61.1968 71.8832 60.0213 73.4505 58.0621C75.8727 55.1412 76.3714 50.2611 73.4861 47.4115C72.8449 46.8415 71.9544 46.4141 71.0639 46.4141C70.7789 46.4141 70.3515 46.3428 70.0665 46.4141C68.5704 46.4853 67.1456 47.2334 66.2194 48.4088C65.4001 49.4062 64.9371 50.6173 64.7946 51.8285C64.7946 52.0422 65.1152 52.1134 65.1864 51.8997Z" fill="black"/>
<path d="M42.6741 63.7614C42.6384 64.3314 43.0659 65.3287 43.8496 66.0412C47.8747 63.5833 49.6914 64.8657 49.6914 64.8657C51.1162 62.6928 50.7956 59.7362 47.3404 61.9804C44.9538 63.5477 43.4577 63.797 42.6741 63.7614Z" fill="black"/>
<path d="M43.8852 66.0768C44.7401 66.8248 46.0225 67.2879 47.7679 66.5755C48.5872 66.2549 49.2284 65.6137 49.7271 64.9013C49.6914 64.9013 47.9104 63.6189 43.8852 66.0768Z" fill="white"/>
<path d="M41.9973 63.6546C41.9973 63.6546 43.4934 64.4738 47.3404 62.016C51.9355 59.0595 51.0094 65.2575 47.7679 66.5755C44.3839 67.9647 42.6385 64.9369 42.6741 63.797" stroke="black" stroke-width="3" stroke-miterlimit="10" stroke-linecap="round" stroke-linejoin="round"/>
<path d="M49.6912 64.9013C49.6912 64.9013 47.8745 63.6189 43.8493 66.0768" stroke="black" stroke-width="3" stroke-miterlimit="10" stroke-linecap="round" stroke-linejoin="round"/>
<path d="M47.1978 44.3125C46.4142 44.4193 45.8086 43.6 46.0936 42.8164C46.236 42.3889 46.4854 41.9971 46.8772 41.7478C48.0883 40.9997 52.6122 40.9285 54.9988 42.6383C57.1361 44.2056 50.7599 43.8138 47.1978 44.3125Z" fill="black"/>
<path d="M37.3309 44.7043C37.9721 44.7043 38.3639 43.885 38.0433 43.2082C37.8652 42.852 37.6159 42.5314 37.2597 42.3533C36.1554 41.819 33.1989 42.1396 31.8809 43.9563C30.7054 45.5592 34.3744 44.6687 37.3309 44.7043Z" fill="black"/>
<path d="M48.5158 48.9076C50.3325 48.1239 52.3985 48.3376 54.2864 48.7651C54.5001 48.8363 54.6426 48.5514 54.4645 48.4089C52.8259 47.0553 49.7269 46.8772 48.4089 48.7295C48.3021 48.8007 48.3733 48.9432 48.5158 48.9076Z" fill="black"/>
<path d="M34.5167 49.6556C35.3716 49.05 36.6183 49.1569 37.6157 49.2638C37.9719 49.2994 38.3281 49.3706 38.7199 49.4775C38.8268 49.5131 38.9337 49.335 38.8624 49.2638L38.7912 49.1925C37.9007 48.2664 36.5115 48.0527 35.3003 48.5157C34.8729 48.6938 34.4454 48.9432 34.2317 49.4419C34.1248 49.62 34.3742 49.7981 34.5167 49.6556Z" fill="black"/>
<path d="M28.1039 43.8493C26.501 38.3637 29.2794 34.5522 31.2742 32.6999C32.2003 30.2065 33.7676 27.7486 36.2611 25.8607C36.7598 25.4689 37.2941 25.1127 37.8997 24.7921C38.3984 24.5071 38.9327 24.2578 39.467 24.0084C44.1689 21.978 51.685 19.5914 59.1297 20.8738C61.9794 21.3369 64.8291 22.3699 67.5006 24.1153C67.5363 24.1153 67.5363 24.1509 67.5363 24.1509C67.75 24.2934 67.9637 24.4359 68.1418 24.5784C68.6405 23.9728 69.2104 23.4385 69.8516 22.9398C74.3042 19.5914 79.1487 20.1614 82.497 24.6496C85.8454 29.1022 86.4153 35.7633 81.9627 39.1117C80.5735 40.1447 79.0062 40.7859 77.4033 41.0352C77.4389 41.2133 77.4389 41.427 77.4745 41.6052C79.4336 59.1663 66.0046 67.0741 67.0376 61.5529C67.3225 61.446 67.465 61.3391 67.465 61.2679C77.332 58.1333 75.7647 47.5895 71.3121 47.0195C69.7091 46.8058 68.5336 47.1976 67.6075 47.7676C67.2513 48.1238 66.9307 48.4444 66.6101 48.765C65.7552 49.8336 65.0072 51.1872 65.0072 51.7215C64.9716 51.294 64.9359 50.7953 64.8291 50.2967C60.5189 53.5025 56.6363 52.3627 49.5833 41.1065C44.917 33.6617 42.1386 32.2012 40.6069 32.415C40.0013 32.6287 39.4314 33.0918 38.8971 33.8754C38.7546 34.0891 38.6121 34.3029 38.5052 34.5166C35.3706 34.4454 33.9101 36.262 33.1621 38.1499C33.1621 38.1499 33.1621 38.1499 33.1621 38.1855C32.5565 39.7885 32.4853 41.427 32.414 41.8545C32.414 41.9257 32.414 41.9614 32.3784 41.9614C32.4497 43.3862 32.6278 45.8084 32.6634 48.9431C32.6634 50.3679 32.5209 53.2176 32.6278 54.8561C32.6634 55.3548 32.699 55.8535 32.7346 56.3166C32.7703 56.5659 32.7703 56.8153 32.8059 57.029C32.8415 57.2427 32.8415 57.4921 32.8771 57.7414C32.9127 58.0264 32.9484 58.2757 32.9484 58.5607C32.2359 59.4156 31.2029 59.5581 30.348 60.128C30.1343 57.7058 30.7755 55.6754 31.0248 52.9326C30.8111 53.8587 30.5261 54.7493 30.0987 55.6754C28.6738 58.7388 29.4575 60.9829 29.4575 60.9829L27.1065 61.1254C26.8572 60.4486 26.6435 59.2019 27.3915 57.5633C28.5314 55.0342 28.6026 53.8587 28.6026 53.8587C28.6026 53.8587 27.9971 55.9248 26.8572 57.314C25.9667 58.4538 25.6105 59.9855 25.9667 61.1967L25.1118 61.2679C22.5471 57.4208 30.4905 51.9352 28.1039 43.8493ZM57.1706 46.9483C59.8778 48.9074 62.1575 48.5156 63.5467 47.9101C63.5111 47.9101 63.4755 47.8744 63.4755 47.8744C62.6206 47.8032 61.7657 47.6251 60.9464 47.3045C57.0281 45.9153 53.3948 42.3176 50.1889 39.0048C52.8961 42.3532 55.4964 45.7372 57.1706 46.9483Z" fill="#FEFEFE"/>
<path d="M6.34045 30.0284C-15.2814 71.6693 22.7261 118.653 68.0359 107.183C88.3754 102.125 104.725 84.4928 108.109 63.7971C111.956 43.2082 102.659 21.0876 85.2764 9.43954C61.446 -6.94608 28.4254 -1.49608 11.363 21.9425C11.2561 22.0493 11.2918 22.2274 11.4343 22.3343C11.5411 22.4412 11.7192 22.4056 11.8261 22.2631C14.1771 19.2353 16.8486 16.4925 19.7696 14.0346C24.5784 9.93823 30.2065 6.73235 36.1552 4.55948C66.433 -6.41177 99.6673 11.8261 106.293 43.4931C113.773 78.9716 83.6022 111.636 47.6251 106.756C19.8764 103.265 -0.748108 77.6536 1.53163 49.798C2.03033 43.0657 3.81138 36.4046 6.76791 30.2778C6.83916 30.1709 6.76791 30.0284 6.66106 29.9572C6.55419 29.8859 6.4117 29.9216 6.34045 30.0284Z" fill="#FEFEFE"/>
</g>
</svg>
